<mxfile host="app.diagrams.net" modified="2022-12-03T15:22:05.197Z" agent="5.0 (Macintosh; Intel Mac OS X 10_15_7) AppleWebKit/537.36 (KHTML, like Gecko) Chrome/107.0.0.0 Safari/537.36" etag="Z3nAHFlQiP5J8Ku0r3In" version="20.4.0" type="github">
  <diagram id="z2pthk6dqJP5xjL5hCRe" name="第 1 页">
    <mxGraphModel dx="946" dy="614" grid="1" gridSize="10" guides="1" tooltips="1" connect="1" arrows="0" fold="1" page="1" pageScale="1" pageWidth="583" pageHeight="827" background="#FFFFFF" math="0" shadow="0">
      <root>
        <mxCell id="0" />
        <mxCell id="1" parent="0" />
        <mxCell id="brlx-wlQWoqc87czsmj0-1" value="&lt;font style=&quot;font-size: 18px;&quot;&gt;登录&lt;/font&gt;" style="rounded=1;whiteSpace=wrap;html=1;" parent="1" vertex="1">
          <mxGeometry x="417" y="10" width="120" height="60" as="geometry" />
        </mxCell>
        <mxCell id="brlx-wlQWoqc87czsmj0-5" style="edgeStyle=orthogonalEdgeStyle;rounded=0;orthogonalLoop=1;jettySize=auto;html=1;exitX=0.5;exitY=1;exitDx=0;exitDy=0;fontSize=14;" parent="1" source="brlx-wlQWoqc87czsmj0-2" target="brlx-wlQWoqc87czsmj0-4" edge="1">
          <mxGeometry relative="1" as="geometry" />
        </mxCell>
        <mxCell id="brlx-wlQWoqc87czsmj0-2" value="&lt;font style=&quot;font-size: 18px;&quot;&gt;validator数据检验&lt;/font&gt;" style="rounded=1;whiteSpace=wrap;html=1;fontSize=14;" parent="1" vertex="1">
          <mxGeometry x="417" y="90" width="120" height="60" as="geometry" />
        </mxCell>
        <mxCell id="brlx-wlQWoqc87czsmj0-3" value="" style="endArrow=classic;html=1;rounded=0;fontSize=14;exitX=0.5;exitY=1;exitDx=0;exitDy=0;" parent="1" source="brlx-wlQWoqc87czsmj0-1" target="brlx-wlQWoqc87czsmj0-2" edge="1">
          <mxGeometry width="50" height="50" relative="1" as="geometry">
            <mxPoint x="300" y="120" as="sourcePoint" />
            <mxPoint x="510" y="110" as="targetPoint" />
          </mxGeometry>
        </mxCell>
        <mxCell id="brlx-wlQWoqc87czsmj0-11" value="是" style="edgeStyle=orthogonalEdgeStyle;rounded=0;orthogonalLoop=1;jettySize=auto;html=1;exitX=0.5;exitY=1;exitDx=0;exitDy=0;fontSize=14;" parent="1" source="brlx-wlQWoqc87czsmj0-4" target="brlx-wlQWoqc87czsmj0-8" edge="1">
          <mxGeometry relative="1" as="geometry">
            <Array as="points">
              <mxPoint x="477" y="280" />
              <mxPoint x="640" y="280" />
            </Array>
          </mxGeometry>
        </mxCell>
        <mxCell id="brlx-wlQWoqc87czsmj0-13" style="edgeStyle=orthogonalEdgeStyle;rounded=0;orthogonalLoop=1;jettySize=auto;html=1;exitX=0.5;exitY=1;exitDx=0;exitDy=0;fontSize=14;" parent="1" source="brlx-wlQWoqc87czsmj0-4" target="brlx-wlQWoqc87czsmj0-12" edge="1">
          <mxGeometry relative="1" as="geometry">
            <Array as="points">
              <mxPoint x="477" y="280" />
              <mxPoint x="370" y="280" />
            </Array>
          </mxGeometry>
        </mxCell>
        <mxCell id="brlx-wlQWoqc87czsmj0-14" value="否&lt;br&gt;" style="edgeLabel;html=1;align=center;verticalAlign=middle;resizable=0;points=[];fontSize=14;" parent="brlx-wlQWoqc87czsmj0-13" vertex="1" connectable="0">
          <mxGeometry x="-0.044" y="-4" relative="1" as="geometry">
            <mxPoint as="offset" />
          </mxGeometry>
        </mxCell>
        <mxCell id="brlx-wlQWoqc87czsmj0-4" value="&lt;font style=&quot;font-size: 18px;&quot;&gt;账号为空？或&amp;nbsp; 密码为空？&amp;nbsp;&lt;/font&gt;" style="rounded=1;whiteSpace=wrap;html=1;fontSize=14;" parent="1" vertex="1">
          <mxGeometry x="359" y="180" width="236" height="60" as="geometry" />
        </mxCell>
        <mxCell id="brlx-wlQWoqc87czsmj0-10" style="edgeStyle=orthogonalEdgeStyle;rounded=0;orthogonalLoop=1;jettySize=auto;html=1;fontSize=14;" parent="1" source="brlx-wlQWoqc87czsmj0-8" target="brlx-wlQWoqc87czsmj0-9" edge="1">
          <mxGeometry relative="1" as="geometry" />
        </mxCell>
        <mxCell id="brlx-wlQWoqc87czsmj0-8" value="&lt;font style=&quot;font-size: 18px;&quot;&gt;返回响应&lt;/font&gt;" style="rounded=1;whiteSpace=wrap;html=1;fontSize=14;" parent="1" vertex="1">
          <mxGeometry x="580" y="364" width="120" height="50" as="geometry" />
        </mxCell>
        <mxCell id="brlx-wlQWoqc87czsmj0-9" value="&lt;font style=&quot;font-size: 18px;&quot;&gt;账号或密码不能为空&lt;/font&gt;" style="rounded=1;whiteSpace=wrap;html=1;fontSize=14;" parent="1" vertex="1">
          <mxGeometry x="565" y="440" width="150" height="60" as="geometry" />
        </mxCell>
        <mxCell id="brlx-wlQWoqc87czsmj0-16" style="edgeStyle=orthogonalEdgeStyle;rounded=0;orthogonalLoop=1;jettySize=auto;html=1;entryX=0.5;entryY=0;entryDx=0;entryDy=0;fontSize=14;" parent="1" source="brlx-wlQWoqc87czsmj0-12" target="brlx-wlQWoqc87czsmj0-15" edge="1">
          <mxGeometry relative="1" as="geometry" />
        </mxCell>
        <mxCell id="brlx-wlQWoqc87czsmj0-12" value="&lt;font style=&quot;font-size: 18px;&quot;&gt;crypto对密码进行md5加密&lt;/font&gt;" style="rounded=1;whiteSpace=wrap;html=1;fontSize=14;" parent="1" vertex="1">
          <mxGeometry x="320" y="359" width="118" height="60" as="geometry" />
        </mxCell>
        <mxCell id="brlx-wlQWoqc87czsmj0-19" style="edgeStyle=orthogonalEdgeStyle;rounded=0;orthogonalLoop=1;jettySize=auto;html=1;fontSize=14;" parent="1" source="brlx-wlQWoqc87czsmj0-15" target="brlx-wlQWoqc87czsmj0-17" edge="1">
          <mxGeometry relative="1" as="geometry">
            <Array as="points">
              <mxPoint x="120" y="449" />
              <mxPoint x="120" y="597" />
              <mxPoint x="139" y="597" />
            </Array>
          </mxGeometry>
        </mxCell>
        <mxCell id="brlx-wlQWoqc87czsmj0-20" value="找不到用户" style="edgeLabel;html=1;align=center;verticalAlign=middle;resizable=0;points=[];fontSize=14;" parent="brlx-wlQWoqc87czsmj0-19" vertex="1" connectable="0">
          <mxGeometry x="0.2381" y="2" relative="1" as="geometry">
            <mxPoint as="offset" />
          </mxGeometry>
        </mxCell>
        <mxCell id="brlx-wlQWoqc87czsmj0-22" value="找到用户" style="edgeStyle=orthogonalEdgeStyle;rounded=0;orthogonalLoop=1;jettySize=auto;html=1;fontSize=14;" parent="1" source="brlx-wlQWoqc87czsmj0-15" target="brlx-wlQWoqc87czsmj0-21" edge="1">
          <mxGeometry relative="1" as="geometry" />
        </mxCell>
        <mxCell id="brlx-wlQWoqc87czsmj0-15" value="&lt;font style=&quot;font-size: 18px;&quot;&gt;使用加密后的密码和账号在数据库中查找用户&lt;/font&gt;" style="rounded=1;whiteSpace=wrap;html=1;fontSize=14;" parent="1" vertex="1">
          <mxGeometry x="152" y="414" width="140" height="70" as="geometry" />
        </mxCell>
        <mxCell id="brlx-wlQWoqc87czsmj0-17" value="&lt;font style=&quot;font-size: 18px;&quot;&gt;返回响应(账号或密码错误)&lt;/font&gt;" style="rounded=1;whiteSpace=wrap;html=1;fontSize=14;" parent="1" vertex="1">
          <mxGeometry x="50" y="550" width="150" height="70" as="geometry" />
        </mxCell>
        <mxCell id="brlx-wlQWoqc87czsmj0-25" style="edgeStyle=orthogonalEdgeStyle;rounded=0;orthogonalLoop=1;jettySize=auto;html=1;fontSize=14;" parent="1" source="brlx-wlQWoqc87czsmj0-21" target="brlx-wlQWoqc87czsmj0-23" edge="1">
          <mxGeometry relative="1" as="geometry" />
        </mxCell>
        <mxCell id="brlx-wlQWoqc87czsmj0-21" value="&lt;font style=&quot;font-size: 18px;&quot;&gt;获取用户在数据库中的id&lt;/font&gt;" style="rounded=1;whiteSpace=wrap;html=1;fontSize=14;" parent="1" vertex="1">
          <mxGeometry x="310" y="520" width="120" height="60" as="geometry" />
        </mxCell>
        <mxCell id="brlx-wlQWoqc87czsmj0-26" style="edgeStyle=orthogonalEdgeStyle;rounded=0;orthogonalLoop=1;jettySize=auto;html=1;fontSize=14;" parent="1" source="brlx-wlQWoqc87czsmj0-23" target="brlx-wlQWoqc87czsmj0-24" edge="1">
          <mxGeometry relative="1" as="geometry" />
        </mxCell>
        <mxCell id="brlx-wlQWoqc87czsmj0-23" value="&lt;font style=&quot;font-size: 18px;&quot;&gt;使用JWT加密用户id获得用户token&lt;/font&gt;" style="rounded=1;whiteSpace=wrap;html=1;fontSize=14;" parent="1" vertex="1">
          <mxGeometry x="310" y="600" width="130" height="70" as="geometry" />
        </mxCell>
        <mxCell id="brlx-wlQWoqc87czsmj0-24" value="&lt;font style=&quot;font-size: 18px;&quot;&gt;返回响应(带上用户的token，便于后续鉴权)&lt;/font&gt;" style="rounded=1;whiteSpace=wrap;html=1;fontSize=14;" parent="1" vertex="1">
          <mxGeometry x="285" y="700" width="180" height="60" as="geometry" />
        </mxCell>
      </root>
    </mxGraphModel>
  </diagram>
</mxfile>
